<svg width="24" height="24" fill="none" xmlns="http://www.w3.org/2000/svg">
  <path fill="#1E1E1E" d="M0 0h24v24H0z"/>
  <g clip-path="url(#a)">
    <path fill="#F3F5FA" d="M-32-3589h360V905H-32z"/>
    <path d="M14 9.3v2.9h2.6c.2 0 .3.2.3.4l-.4 1.9c0 .1-.2.2-.3.2H14V22h-3v-7.2H9.3c-.2 0-.3-.1-.3-.3v-1.9c0-.2.1-.3.3-.3H11V9c0-1.7 1.3-3 3-3h2.7c.2 0 .3.1.3.3v2.4c0 .2-.1.3-.3.3h-2.4c-.2 0-.3.1-.3.3Z" fill="#173D33"/>
    <path d="M15 22H9c-5 0-7-2-7-7V9c0-5 2-7 7-7h6c5 0 7 2 7 7v6c0 5-2 7-7 7Z" stroke="#173D33" stroke-width="1.5" stroke-linecap="round" stroke-linejoin="round"/>
  </g>
  <defs>
    <clipPath id="a">
      <path fill="#fff" transform="translate(-32 -3589)" d="M0 0h360v4494H0z"/>
    </clipPath>
  </defs>
</svg>
