<svg width="24" height="24" fill="none" xmlns="http://www.w3.org/2000/svg">
  <path fill="#1E1E1E" d="M0 0h24v24H0z"/>
  <g clip-path="url(#a)">
    <path fill="#F3F5FA" d="M-88-3589h360V905H-88z"/>
    <g stroke="#173D33" stroke-linecap="round" stroke-linejoin="round">
      <path d="M9 22h6c5 0 7-2 7-7V9c0-5-2-7-7-7H9C4 2 2 4 2 9v6c0 5 2 7 7 7Z" stroke-width="1.5"/>
      <path d="M12 15.5a3.5 3.5 0 1 0 0-7 3.5 3.5 0 0 0 0 7Z" stroke-width="1.5"/>
      <path d="M17.636 7h.012" stroke-width="2"/>
    </g>
  </g>
  <defs>
    <clipPath id="a">
      <path fill="#fff" transform="translate(-88 -3589)" d="M0 0h360v4494H0z"/>
    </clipPath>
  </defs>
</svg>
