<svg width="31" height="18" fill="none" xmlns="http://www.w3.org/2000/svg">
  <path fill="#1E1E1E" d="M0 0h31v18H0z"/>
  <path fill="#F8FAFF" d="M-109-2147h6247v4238H-109z"/>
  <g clip-path="url(#a)">
    <path d="M21.33 12.809c-.065-.153-5.391-10.56-5.478-10.704A3.426 3.426 0 0 0 15.05.953 3.48 3.48 0 0 0 13.85.212a3.518 3.518 0 0 0-2.77.157c-.426.213-.803.51-1.107.872a3.379 3.379 0 0 0-.301 3.948c.065.154 5.162 10.115 5.25 10.258.064.154.14.303.228.446.184.435.456.827.8 1.153a3.48 3.48 0 0 0 1.202.74 3.52 3.52 0 0 0 2.77-.157c.426-.212.803-.51 1.108-.872a3.38 3.38 0 0 0 .301-3.948Z" fill="#173D33"/>
    <path d="M15.18 5.767c.326-.343.577-.749.738-1.192a3.38 3.38 0 0 0-.19-2.729 3.435 3.435 0 0 0-.894-1.082 3.52 3.52 0 0 0-4.005-.256 3.452 3.452 0 0 0-1.03.959A2700 2700 0 0 0 .94 12.232a3.415 3.415 0 0 0-.739 1.192 3.38 3.38 0 0 0 .19 2.729c.219.418.524.786.894 1.082a3.52 3.52 0 0 0 4.005.256 3.453 3.453 0 0 0 1.03-.959c.115-.12 8.762-10.63 8.858-10.765ZM30.06 5.767c.326-.343.578-.75.738-1.192a3.38 3.38 0 0 0-.189-2.729 3.434 3.434 0 0 0-.895-1.082 3.52 3.52 0 0 0-4.005-.256 3.452 3.452 0 0 0-1.03.959c-.114.12-8.762 10.63-8.858 10.765a3.416 3.416 0 0 0-.738 1.192 3.38 3.38 0 0 0 .188 2.729c.22.417.525.786.896 1.082a3.52 3.52 0 0 0 4.005.256 3.452 3.452 0 0 0 1.03-.959c.114-.12 8.762-10.63 8.858-10.765Z" fill="#97D28B"/>
  </g>
  <defs>
    <clipPath id="a">
      <path fill="#fff" d="M0 0h31v18H0z"/>
    </clipPath>
  </defs>
</svg>
